<?xml version="1.0" standalone="no"?><!DOCTYPE svg PUBLIC "-//W3C//DTD SVG 1.1//EN" "http://www.w3.org/Graphics/SVG/1.1/DTD/svg11.dtd"><svg class="icon" width="200px" height="153.64px" viewBox="0 0 1333 1024" version="1.1" xmlns="http://www.w3.org/2000/svg"><path d="M1156.758464 173.243468H974.382894a28.742042 28.742042 0 1 1 0-57.484084h29.506388a51.118927 51.118927 0 0 0 0-102.224676H736.579068a51.118927 51.118927 0 0 0 0 102.224676h54.795695a28.742042 28.742042 0 0 1 0 57.484084h-75.301251a77.607467 77.607467 0 1 0 0 155.201755h440.684952a77.607467 77.607467 0 0 0 0-155.201755zM541.960785 833.559263h-105.229346a32.287025 32.287025 0 1 1 0-64.574051h33.14362a57.391835 57.391835 0 1 0 0-114.78367h-412.483223a57.391835 57.391835 0 1 0 0 114.78367h173.822802a32.287025 32.287025 0 0 1 0 64.574051h-90.930806a87.135434 87.135434 0 1 0 0 174.257689h401.676953a87.135434 87.135434 0 1 0 0-174.257689z m0 0" fill="#FFCB27" /><path d="M499.381447 41.644188l13.336518 13.349696-13.349697 13.362875-13.349696-13.362875z m0 63.994202l-13.349697-13.362875 13.349697-13.362875 13.336518 13.362875z m5.271351-31.997101l13.336518-13.362875 13.362875 13.362875-13.362875 13.362875z m-37.281631 0l13.362875-13.362875 13.362875 13.362875-13.362875 13.362875z m0 0" fill="#FFB000" /><path d="M92.868029 640.061143l10.990767 10.977588-10.990767 10.977589-10.977589-10.990767z m0 52.63444l-10.990768-10.990767 10.990768-10.990767 10.990767 10.990767z m4.335686-26.356755l10.938053-10.911697 10.990767 10.990767-10.990767 10.938054z m-30.652907 0l10.977589-10.911697 10.990767 10.990767-10.990767 10.977589z m0 0M936.415988 957.79183l10.977589 10.990767-10.977589 10.990767-11.003945-10.990767z m0 52.713511l-11.003945-10.990767 11.003945-10.990767 10.977589 10.990767z m4.322508-26.356755l10.990767-10.977589 10.977589 10.990767-10.977589 10.977589z m-30.652907 0l10.990767-10.977589 10.977589 10.977589-10.977589 10.990767z m0 0M1306.99197 707.850718l10.990767 10.977589-10.990767 10.990767-10.977588-10.990767z m0 52.713511l-10.977588-10.977589 10.977588-10.990767 10.990767 10.990767z m4.335687-26.356756l10.990767-10.977588 10.977588 10.990767-10.977588 10.977588z m-30.652907 0l10.977589-10.977588 10.990767 10.990767-10.990767 10.977588z m0 0" fill="#FF664D" /><path d="M616.57676 67.394738a9.303935 9.303935 0 0 1-8.697729-6.180659c-5.600811-16.130334-22.877664-30.073058-45.992538-37.400236-27.331955-8.579124-68.619813-9.158973-102.488244 15.10242a9.224864 9.224864 0 1 1-10.740378-14.86521c32.945944-23.72108 78.345456-30.428874 118.6054-17.738096 28.992431 9.158973 50.077835 27.002496 57.760829 48.839068a9.106259 9.106259 0 0 1-5.60081 11.676043 5.943448 5.943448 0 0 1-2.859708 0.56667z m0 0" fill="#9ACC79" /><path d="M441.673331 12.941681c5.956627 7.55121 5.956627 34.435101-1.594584 40.391728a17.514064 17.514064 0 0 1-24.590853-2.978314c-5.956627-7.55121-5.956627-34.435101 1.594584-40.378549a17.500886 17.500886 0 0 1 24.590853 2.965135z m0 0" fill="#FF8F8F" /><path d="M402.4413 22.443291c9.607037 1.146519 28.478474 20.136561 27.345134 29.743599a17.500886 17.500886 0 0 1-19.451286 15.326453c-9.633394-1.159697-28.478474-20.136561-27.331955-29.743598a17.487707 17.487707 0 0 1 19.438107-15.326454z m0 0" fill="#FF8F8F" /><path d="M387.681517 73.680824c1.146519-9.607037 20.136561-28.478474 29.743599-27.331956a17.500886 17.500886 0 0 1 15.326453 19.451286c-1.13334 9.607037-20.123383 28.478474-29.73042 27.331955a17.500886 17.500886 0 0 1-15.339632-19.451285z m0 0" fill="#FF8F8F" /><path d="M415.369289 59.962133c-5.956627 7.55121-5.956627 34.421923 1.594583 40.378549a17.500886 17.500886 0 0 0 24.590853-2.978313c5.956627-7.55121 5.956627-34.421923-1.594583-40.37855a17.593134 17.593134 0 0 0-24.590853 2.978314z m0 0" fill="#FF8F8F" /><path d="M453.573406 22.443291c-9.607037 1.146519-28.491653 20.136561-27.345134 29.743599a17.500886 17.500886 0 0 0 19.451286 15.326453c9.607037-1.146519 28.478474-20.136561 27.331955-29.743598a17.487707 17.487707 0 0 0-19.438107-15.326454z m0 0" fill="#FF8F8F" /><path d="M469.229319 73.680824c-1.146519-9.607037-20.136561-28.478474-29.743599-27.331956a17.514064 17.514064 0 0 0-15.326453 19.451286c1.146519 9.607037 20.136561 28.478474 29.743598 27.331955a17.500886 17.500886 0 0 0 15.326454-19.451285z m0 0" fill="#FF8F8F" /><path d="M411.020424 53.557441a17.500886 17.500886 0 1 0 17.500886-17.514064 17.514064 17.514064 0 0 0-17.500886 17.500886z m0 0" fill="#FF7171" /><path d="M315.622148 661.278331c0 190.216704 157.165333 344.416902 351.045626 344.416902s351.045626-154.18702 351.045626-344.416902-157.165333-344.403724-351.045626-344.403724-351.045626 154.18702-351.045626 344.403724z m0 0" fill="#FFFFFF" /><path d="M666.667774 1024c-98.600622 0-191.244618-37.637447-261.024128-106.151833s-108.326265-159.62969-108.326265-256.569836 38.441328-188.042272 108.326265-256.569836 162.423506-106.138654 261.024128-106.138655 191.244618 37.637447 261.024128 106.138655 108.326265 159.682403 108.326265 256.569836-38.42815 188.05545-108.326265 256.569836-162.423506 106.151833-261.024128 106.151833z m0-688.833805c-183.469375 0.026357-332.74086 146.30635-332.74086 326.112136s149.271485 326.112136 332.74086 326.112136 332.74086-146.279993 332.74086-326.112136-149.258306-326.085779-332.74086-326.085779z m0 0" fill="#CA3A2A" /><path d="M840.648717 362.050086c74.128375 63.137608 121.017043 156.256025 121.017043 260.11482 0 190.216704-157.165333 344.403724-351.045627 344.403724a355.354956 355.354956 0 0 1-173.954586-45.175479 353.720837 353.720837 0 0 0 230.028584 84.341617c193.893472 0 351.045626-154.18702 351.045626-344.416902 0-128.10701-71.255488-239.846475-177.064683-299.228245z m0 0" fill="#EDEDED" /><path d="M666.667774 1024c-98.600622 0-191.244618-37.637447-261.024128-106.151833s-108.326265-159.62969-108.326265-256.569836 38.441328-188.042272 108.326265-256.569836 162.423506-106.138654 261.024128-106.138655 191.244618 37.637447 261.024128 106.138655 108.326265 159.682403 108.326265 256.569836-38.42815 188.05545-108.326265 256.569836-162.423506 106.151833-261.024128 106.151833z m0-688.833805c-183.469375 0.026357-332.74086 146.30635-332.74086 326.112136s149.271485 326.112136 332.74086 326.112136 332.74086-146.279993 332.74086-326.112136-149.258306-326.085779-332.74086-326.085779z m0 0" fill="#CA3A2A" /><path d="M879.195472 270.776642c0 117.353454-90.588169 166.890976-207.954801 166.890975s-217.100595-49.537522-217.100595-166.890975a212.527698 212.527698 0 0 1 425.055396 0z m0 0" fill="#FFFFFF" /><path d="M671.240671 455.959206c-65.760105 0-122.044956-14.759783-162.871571-42.671588-47.44216-32.366096-72.481078-81.705942-72.481077-142.510976 0-127.316307 103.529336-230.832465 230.832464-230.832465s230.806108 103.516157 230.806108 230.832465c0 61.081781-23.338907 110.263487-67.486472 142.326479-38.770787 28.030409-93.685087 42.89562-158.773095 42.89562z m-4.572897-379.418674c-107.061141 0-194.222931 87.16179-194.222931 194.23611 0 48.957673 18.990042 86.700547 56.508884 112.319313 34.76456 23.72108 83.959445 36.266896 142.326479 36.266896 57.312765 0 104.781281-12.479924 137.265983-35.924258 34.777739-25.170701 52.384052-63.137608 52.384051-112.661951 0-107.074319-87.16179-194.23611-194.222931-194.23611z m0 0" fill="#CA3A2A" /><path d="M731.294538 69.107927c48.272398 25.170701 85.329996 70.003543 98.257985 126.512426 23.72108 103.516157-42.671587 207.032314-148.243571 231.175103a197.912877 197.912877 0 0 1-100.313812-2.978314 197.227601 197.227601 0 0 0 135.737291 17.131891c105.677411-24.050539 171.964651-127.61941 148.283106-231.148745-16.011729-69.647726-68.751597-121.583713-133.720999-140.692361z m0 0" fill="#EDEDED" /><path d="M757.717186 287.473646c2.174432 21.955177-13.178378 48.49643-35.107198 50.670863s-42.328949-20.703231-44.503382-42.671588z m0 0" fill="#FF6666" /><path d="M473.367329 375.202107s39.917306 30.652907 104.425465 47.44216a326.059422 326.059422 0 0 0 101.921574 10.06828c78.345456-4.691502 175.272424-45.518117 180.148424-57.536797s55.349187 59.144559 61.648451 66.919802-72.481078 93.105239-232.084411 103.753368c-153.844382 10.292313-275.770733-94.607574-273.372268-103.753368s45.070052-74.233802 57.312765-66.919802z m0 0" fill="#FF7171" /><path d="M668.499568 564.852141c-131.994632 0-239.846475-77.09351-263.567554-105.571984-2.51707-3.096919-9.383005-11.214799-6.589189-21.731145 2.859708-11.096194 21.493934-37.176204 23.562939-40.035912 23.562939-32.721912 34.883166-37.413414 39.113425-39.126603a23.931934 23.931934 0 0 1 21.625718 1.146519l0.909308 0.56667 0.803881 0.579849c0.790703 0.685276 38.546755 28.821112 97.915347 44.26617a308.808926 308.808926 0 0 0 96.307584 9.488432c41.406463-2.503892 84.341618-15.326453 106.151833-22.759058 35.107198-11.86054 54.782516-22.640453 59.71123-26.422647a19.886172 19.886172 0 0 1 14.627999-9.488432c11.676043-1.489157 21.28308 5.271351 41.182431 28.992431 10.977589 13.178378 22.772237 28.992431 29.743598 38.322722 2.51707 3.320951 4.915535 6.523297 5.600811 7.551211 2.398465 2.978313 7.327178 10.977589 2.174432 22.759058-6.286086 14.417145-31.11415 39.232031-72.402007 61.938375-34.896344 19.214075-93.566482 43.343684-174.890251 48.759998q-10.819448 0.698454-21.968356 0.685276z m-230.898356-124.443421c10.410918 9.949675 35.818831 30.310269 75.274894 49.642949 40.154517 19.767567 103.173519 42.315771 175.575526 37.518841 126.288394-8.355091 194.578747-63.954667 211.961028-83.392774-12.703956-16.921037-27.911804-36.71496-37.637447-47.125879a130.848113 130.848113 0 0 1-13.600086 7.775243 384.72956 384.72956 0 0 1-45.531295 18.990042c-24.933491 8.803156-74.009769 24.142788-122.74341 27.002496a343.336275 343.336275 0 0 1-107.627811-10.648129c-50.44683-13.178378-86.59512-34.263782-102.382817-44.608809a179.581754 179.581754 0 0 0-18.792366 22.535026c-6.167481 8.803156-11.320226 16.710183-14.496216 22.310994z m0 0" fill="#CA3A2A" /><path d="M488.575177 404.8271h36.596355v95.740914h-36.596355z m79.070267 32.379274h36.609533v95.727736h-36.649069z m0 0M646.531213 437.206374h36.609533v95.740914h-36.609533zM725.575123 437.206374h36.609533v95.740914h-36.609533zM804.619032 408.490689h36.596355v95.740914h-36.596355z" fill="#FFA4A4" /><path d="M665.178617 565.313384c-62.333727 0-119.989129-20.584626-159.22116-39.23203-47.692549-22.653631-87.728461-51.593349-101.117692-67.367867-2.279859-2.635676-9.145794-10.648129-6.404692-21.164475 2.859708-11.096194 21.507112-37.176204 23.56294-40.035912 23.562939-32.721912 34.896344-37.413414 39.126603-39.126603a23.905577 23.905577 0 0 1 21.61254 1.146519l0.922486 0.56667 0.790703 0.579849c0.579849 0.342638 38.322722 28.702507 97.915347 44.26617a308.808926 308.808926 0 0 0 96.307584 9.488432c41.419641-2.503892 84.341618-15.326453 106.151833-22.759058 35.120377-11.86054 54.795695-22.640453 59.711229-26.422647a19.925707 19.925707 0 0 1 14.641178-9.488432c11.676043-1.489157 21.28308 5.271351 41.182431 28.992431 10.977589 13.270626 22.759058 28.992431 29.73042 38.322722 2.530249 3.320951 4.928713 6.523297 5.613989 7.551211 2.398465 2.859708 7.327178 10.872162 2.398464 22.640453-7.208573 17.276853-34.659133 40.958398-70.003542 60.172472-33.973858 18.528799-92.248644 42.434376-176.946078 50.670863-8.579124 0.803881-17.276853 1.146519-25.974583 1.146519z m-227.392908-125.194588c11.86054 10.753556 40.852971 32.023458 80.190429 51.118927 41.406463 20.136561 104.425465 42.790193 169.856111 36.490928 77.673358-7.538032 130.742686-28.992431 161.501019-45.518117 28.59708-15.445059 44.279349-29.862204 51.145284-37.637447-12.703956-17.131891-27.990874-37.004885-37.756052-47.44216a130.848113 130.848113 0 0 1-13.600086 7.775243 389.223387 389.223387 0 0 1-45.531295 18.990043c-24.933491 8.803156-74.009769 24.12961-122.743411 26.989317a343.323097 343.323097 0 0 1-107.627811-10.634951c-50.44683-13.178378-86.59512-34.19789-102.382816-44.608808a178.567018 178.567018 0 0 0-18.739653 22.574561c-6.062054 8.460519-10.977589 16.235761-14.29854 21.84975z m0 0" fill="#CA3A2A" /><path d="M699.271081 676.72339c0 14.588464 7.234929 28.069945 18.990042 35.370765a35.726582 35.726582 0 0 0 37.980085 0c11.741935-7.300821 18.976864-20.782302 18.976863-35.370765s-7.234929-28.069945-18.976863-35.357588a35.673869 35.673869 0 0 0-37.980085 0c-11.755113 7.287643-18.990042 20.769123-18.990042 35.357588z m0 0M699.271081 823.016561c0 14.601643 7.234929 28.069945 18.990042 35.370766a35.673869 35.673869 0 0 0 37.980085 0c11.741935-7.300821 18.976864-20.769123 18.976863-35.370766s-7.234929-28.069945-18.976863-35.357588a35.673869 35.673869 0 0 0-37.980085 0c-11.755113 7.287643-18.990042 20.769123-18.990042 35.357588z m0 0" fill="#FFE9D2" /><path d="M703.277307 670.424125c0 14.588464 7.234929 28.083123 18.976864 35.370766a35.673869 35.673869 0 0 0 37.980085 0c11.755113-7.287643 18.990042-20.782302 18.990042-35.370766s-7.234929-28.056766-18.990042-35.357587a35.673869 35.673869 0 0 0-37.980085 0c-11.741935 7.300821-18.976864 20.769123-18.976864 35.357587z m0 0" fill="#FFC580" /><path d="M726.207685 657.390709a5.8512 5.8512 0 1 0 5.838021-6.180659 6.022519 6.022519 0 0 0-5.838021 6.180659z m0 0M752.116375 655.334883a5.838021 5.838021 0 1 0 5.838022-6.18066 6.00934 6.00934 0 0 0-5.838022 6.18066z m0 0M727.525522 683.589324a5.838021 5.838021 0 1 0 5.838022-6.180659 5.996162 5.996162 0 0 0-5.838022 6.180659z m0 0M753.3815 681.533497a5.838021 5.838021 0 1 0 5.824843-6.180659 5.996162 5.996162 0 0 0-5.824843 6.180659z m0 0" fill="#FFB583" /><path d="M703.277307 816.730475c0 14.588464 7.234929 28.069945 18.976864 35.357587a35.673869 35.673869 0 0 0 37.980085 0c11.755113-7.287643 18.990042-20.769123 18.990042-35.357587s-7.234929-28.069945-18.990042-35.370766a35.726582 35.726582 0 0 0-37.980085 0c-11.741935 7.300821-18.976864 20.782302-18.976864 35.370766z m0 0" fill="#FFC580" /><path d="M726.207685 804.606367a5.8512 5.8512 0 1 0 5.838021-6.180659 6.00934 6.00934 0 0 0-5.838021 6.180659z m0 0M752.116375 802.55054a5.838021 5.838021 0 1 0 5.838022-6.180659 6.00934 6.00934 0 0 0-5.838022 6.180659z m0 0M727.525522 830.791804a5.838021 5.838021 0 1 0 5.838022-6.167481 6.00934 6.00934 0 0 0-5.838022 6.167481z m0 0M753.3815 828.735977a5.838021 5.838021 0 1 0 5.824843-6.167481 6.00934 6.00934 0 0 0-5.824843 6.167481z m0 0" fill="#FFB583" /><path d="M671.240671 455.959206c-65.760105 0-122.044956-14.759783-162.871571-42.671588-47.44216-32.366096-72.481078-81.705942-72.481077-142.510976 0-127.316307 103.529336-230.832465 230.832464-230.832465s230.806108 103.516157 230.806108 230.832465c0 61.081781-23.338907 110.263487-67.486472 142.326479-38.770787 28.030409-93.685087 42.89562-158.773095 42.89562z m-4.572897-379.418674c-107.061141 0-194.222931 87.16179-194.222931 194.23611 0 48.957673 18.990042 86.700547 56.508884 112.319313 34.76456 23.72108 83.959445 36.266896 142.326479 36.266896 57.312765 0 104.781281-12.479924 137.265983-35.924258 34.777739-25.170701 52.384052-63.137608 52.384051-112.661951 0-107.074319-87.16179-194.23611-194.222931-194.23611z m0 0" fill="#CA3A2A" /><path d="M618.263593 216.587152c1.080627 8.961297 4.744216 16.934215 9.607037 20.887729s10.186886 3.320951 13.96908-1.686832 5.44267-13.613264 4.348865-22.58774-4.744216-16.921037-9.607037-20.887729-10.186886-3.320951-13.969081 1.686833-5.44267 13.613264-4.348864 22.587739z m0 0M766.968407 204.09405c1.080627 8.961297 4.744216 16.921037 9.607037 20.887729s10.200064 3.307773 13.969081-1.700011 5.508562-13.613264 4.362043-22.508669-4.757394-16.934215-9.620216-20.887729-10.186886-3.320951-13.96908 1.686833-5.44267 13.613264-4.348865 22.587739z m0 0" fill="#CA3A2A" /></svg>